# Created by Metasequoia

mtllib ice_lolly0.mtl

v -0.375475 0.903638 0.162099
v 0.375475 0.903638 0.162099
v 0.442154 -0.457683 0.189224
v -0.442154 -0.457683 0.189224
v 0.373063 0.951314 0.128997
v 0.374097 0.930877 0.150080
v -0.374097 0.930877 0.150080
v -0.373063 0.951314 0.128997
v 0.488349 -0.457683 0.158638
v 0.468800 -0.457683 0.178187
v 0.401464 0.903638 0.150726
v 0.420532 0.903638 0.130583
v -0.444609 -0.503624 0.160175
v -0.443584 -0.484447 0.178817
v 0.443584 -0.484447 0.178817
v 0.444609 -0.503624 0.160175
v -0.420532 0.903638 0.130583
v -0.401464 0.903638 0.150726
v -0.468800 -0.457683 0.178187
v -0.488349 -0.457683 0.158638
v -0.408672 0.930752 0.129775
v -0.399336 0.940253 0.129327
v -0.400087 0.930877 0.138708
v 0.399336 0.940253 0.129327
v 0.408672 0.930752 0.129775
v 0.400087 0.930877 0.138708
v 0.478443 -0.484585 0.159440
v 0.470956 -0.492301 0.159838
v 0.470230 -0.484447 0.167780
v -0.470956 -0.492301 0.159838
v -0.478443 -0.484585 0.159440
v -0.470230 -0.484447 0.167780
v 0.431297 0.903638 0.103128
v 0.431297 0.903638 -0.103128
v 0.499386 -0.457683 -0.131992
v 0.499386 -0.457683 0.131992
v 0.398770 0.951440 -0.101704
v 0.419437 0.930752 -0.102320
v 0.419437 0.930752 0.102320
v 0.398770 0.951440 0.101704
v 0.468800 -0.457683 -0.178187
v 0.488349 -0.457683 -0.158638
v 0.420532 0.903638 -0.130583
v 0.401464 0.903638 -0.150726
v 0.471554 -0.503486 0.133357
v 0.489480 -0.484585 0.132794
v 0.489480 -0.484585 -0.132794
v 0.471554 -0.503486 -0.133357
v 0.399336 0.940253 -0.129327
v 0.400087 0.930877 -0.138708
v 0.408672 0.930752 -0.129775
v 0.470230 -0.484447 -0.167780
v 0.470956 -0.492301 -0.159838
v 0.478443 -0.484585 -0.159440
v 0.375475 0.903638 -0.162099
v -0.375475 0.903638 -0.162099
v -0.442154 -0.457683 -0.189224
v 0.442154 -0.457683 -0.189224
v -0.373063 0.951314 -0.128997
v -0.374097 0.930877 -0.150080
v 0.374097 0.930877 -0.150080
v 0.373063 0.951314 -0.128997
v -0.488349 -0.457683 -0.158638
v -0.468800 -0.457683 -0.178187
v -0.401464 0.903638 -0.150726
v -0.420532 0.903638 -0.130583
v 0.444609 -0.503624 -0.160175
v 0.443584 -0.484447 -0.178817
v -0.443584 -0.484447 -0.178817
v -0.444609 -0.503624 -0.160175
v -0.399336 0.940253 -0.129327
v -0.408672 0.930752 -0.129775
v -0.400087 0.930877 -0.138708
v -0.478443 -0.484585 -0.159440
v -0.470956 -0.492301 -0.159838
v -0.470230 -0.484447 -0.167780
v -0.431297 0.903638 -0.103128
v -0.431297 0.903638 0.103128
v -0.499386 -0.457683 0.131992
v -0.499386 -0.457683 -0.131992
v -0.398770 0.951440 0.101704
v -0.419437 0.930752 0.102320
v -0.419437 0.930752 -0.102320
v -0.398770 0.951440 -0.101704
v -0.471554 -0.503486 -0.133357
v -0.489480 -0.484585 -0.132794
v -0.489480 -0.484585 0.132794
v -0.471554 -0.503486 0.133357
v -0.372498 0.962500 -0.101374
v 0.372498 0.962500 -0.101374
v 0.372498 0.962500 0.101374
v -0.372498 0.962500 0.101374
v -0.445206 -0.514808 0.133695
v 0.445206 -0.514808 0.133695
v 0.445206 -0.514808 -0.133695
v -0.445206 -0.514808 -0.133695
v 0.059092 -1.050827 0.018872
v -0.059092 -1.050827 0.018872
v 0.085107 -1.050827 -0.014027
v 0.085107 -1.050827 0.014027
v -0.059092 -1.050827 -0.018872
v 0.059092 -1.050827 -0.018872
v -0.085107 -1.050827 0.014027
v -0.085107 -1.050827 -0.014027
v -0.059092 -1.076842 0.014027
v 0.059092 -1.076842 0.014027
v 0.059092 -1.076842 -0.014027
v -0.059092 -1.076842 -0.014027
v -0.059092 -0.514808 0.018872
v 0.085107 -0.514808 -0.014027
v 0.085107 -0.514808 0.014027
v 0.059092 -0.514808 0.018872
v 0.011142 -0.514808 -0.018872
v -0.059092 -0.514808 -0.018872
v -0.085107 -0.514808 -0.014027
v -0.085107 -0.514808 0.014027
v -0.085107 -0.514808 -0.002645
v 0.059092 -0.514808 -0.018872
# 118 vertices

vt 0.30463 0.91813
vt 0.30910 0.92243
vt 0.30874 0.91819
vt 0.69090 0.92243
vt 0.69537 0.91813
vt 0.69126 0.91819
vt 0.71651 0.38738
vt 0.71312 0.38389
vt 0.71279 0.38744
vt 0.28688 0.38389
vt 0.28349 0.38738
vt 0.28721 0.38744
vt 0.20210 0.06395
vt 0.19033 0.05217
vt 0.19033 0.06395
vt 0.13684 0.05217
vt 0.12507 0.06395
vt 0.13684 0.06395
vt 0.39581 0.06021
vt 0.39581 0.04844
vt 0.40759 0.06021
vt 0.33056 0.06021
vt 0.34233 0.04844
vt 0.34233 0.06021
vt 0.70009 0.39955
vt 0.29991 0.39955
vt 0.32050 0.90586
vt 0.67950 0.90586
vt 0.32116 0.91819
vt 0.67884 0.91819
vt 0.69192 0.90586
vt 0.71215 0.39955
vt 0.70074 0.38744
vt 0.29926 0.38744
vt 0.28785 0.39955
vt 0.30808 0.90586
vt 0.32166 0.92743
vt 0.67834 0.92743
vt 0.32193 0.93249
vt 0.67807 0.93249
vt 0.69063 0.92749
vt 0.30937 0.92749
vt 0.70104 0.90586
vt 0.72099 0.39955
vt 0.70618 0.90586
vt 0.72599 0.39955
vt 0.72150 0.38738
vt 0.70051 0.91813
vt 0.70120 0.37876
vt 0.29880 0.37876
vt 0.70147 0.37370
vt 0.29853 0.37370
vt 0.28661 0.37883
vt 0.71339 0.37883
vt 0.27901 0.39955
vt 0.29896 0.90586
vt 0.27401 0.39955
vt 0.29382 0.90586
vt 0.29949 0.91813
vt 0.27850 0.38738
vt 0.22275 0.04597
vt 0.23764 0.05131
vt 0.23453 0.03420
vt 0.28801 0.03420
vt 0.28490 0.04975
vt 0.10671 0.05633
vt 0.10671 0.32218
vt 0.37411 0.32606
vt 0.34233 0.32606
vt 0.39581 0.32606
vt 0.31422 0.06058
vt 0.26074 0.06058
vt 0.26074 0.32643
vt 0.31422 0.32643
vt 0.20210 0.32980
vt 0.19033 0.32980
vt 0.33056 0.32606
vt 0.47326 0.37370
vt 0.50504 0.37370
vt 0.46149 0.37370
vt 0.12507 0.32980
vt 0.13684 0.32980
vt 0.08455 0.32370
vt 0.08455 0.05784
vt 0.09633 0.05784
vt 0.09633 0.32370
vt 0.52674 0.37370
vt 0.53851 0.37370
# 88 texture vertices

vn -0.19751 0.22127 0.95500
vn 0.19751 0.22127 0.95500
vn 0.19569 -0.16240 0.96713
vn -0.19569 -0.16240 0.96713
vn 0.16740 0.82721 0.53638
vn 0.16953 0.56909 0.80461
vn -0.16953 0.56909 0.80461
vn -0.16740 0.82721 0.53638
vn 0.82900 -0.11392 0.54752
vn 0.55802 -0.12039 0.82105
vn 0.55843 0.20653 0.80343
vn 0.82141 0.20906 0.53064
vn -0.17134 -0.81061 0.55995
vn -0.16917 -0.52873 0.83176
vn 0.16917 -0.52873 0.83176
vn 0.17134 -0.81061 0.55995
vn -0.82141 0.20906 0.53064
vn -0.55843 0.20653 0.80343
vn -0.55802 -0.12039 0.82105
vn -0.82900 -0.11392 0.54752
vn -0.72248 0.51193 0.46471
vn -0.49258 0.73247 0.46996
vn -0.49617 0.51604 0.69823
vn 0.49258 0.73247 0.46996
vn 0.72248 0.51193 0.46471
vn 0.49617 0.51604 0.69823
vn 0.73883 -0.45150 0.50028
vn 0.50457 -0.70220 0.50231
vn 0.50095 -0.45558 0.73586
vn -0.50457 -0.70220 0.50231
vn -0.73883 -0.45150 0.50028
vn -0.50095 -0.45558 0.73586
vn 0.95574 0.23003 0.18343
vn 0.95574 0.23003 -0.18343
vn 0.97095 -0.14377 -0.19125
vn 0.97095 -0.14377 0.19125
vn 0.55076 0.81975 -0.15707
vn 0.81374 0.56019 -0.15496
vn 0.81374 0.56019 0.15496
vn 0.55076 0.81975 0.15707
vn 0.55802 -0.12039 -0.82105
vn 0.82900 -0.11392 -0.54752
vn 0.82141 0.20906 -0.53064
vn 0.55843 0.20653 -0.80343
vn 0.56624 -0.80635 0.17080
vn 0.83822 -0.51829 0.16957
vn 0.83822 -0.51829 -0.16957
vn 0.56624 -0.80635 -0.17080
vn 0.49258 0.73247 -0.46996
vn 0.49617 0.51604 -0.69823
vn 0.72248 0.51193 -0.46471
vn 0.50095 -0.45558 -0.73586
vn 0.50457 -0.70220 -0.50231
vn 0.73883 -0.45150 -0.50028
vn 0.19751 0.22127 -0.95500
vn -0.19751 0.22127 -0.95500
vn -0.19569 -0.16240 -0.96713
vn 0.19569 -0.16240 -0.96713
vn -0.16740 0.82721 -0.53638
vn -0.16953 0.56909 -0.80461
vn 0.16953 0.56909 -0.80461
vn 0.16740 0.82721 -0.53638
vn -0.82900 -0.11392 -0.54752
vn -0.55802 -0.12039 -0.82105
vn -0.55843 0.20653 -0.80343
vn -0.82141 0.20906 -0.53064
vn 0.17134 -0.81061 -0.55995
vn 0.16917 -0.52873 -0.83176
vn -0.16917 -0.52873 -0.83176
vn -0.17134 -0.81061 -0.55995
vn -0.49258 0.73247 -0.46996
vn -0.72248 0.51193 -0.46471
vn -0.49617 0.51604 -0.69823
vn -0.73883 -0.45150 -0.50028
vn -0.50457 -0.70220 -0.50231
vn -0.50095 -0.45558 -0.73586
vn -0.95574 0.23003 -0.18343
vn -0.95574 0.23003 0.18343
vn -0.97095 -0.14377 0.19125
vn -0.97095 -0.14377 -0.19125
vn -0.55076 0.81975 0.15707
vn -0.81374 0.56019 0.15496
vn -0.81374 0.56019 -0.15496
vn -0.55076 0.81975 -0.15707
vn -0.56624 -0.80635 -0.17080
vn -0.83822 -0.51829 -0.16957
vn -0.83822 -0.51829 0.16957
vn -0.56624 -0.80635 0.17080
vn -0.19407 0.96312 -0.18639
vn 0.19407 0.96312 -0.18639
vn 0.19407 0.96312 0.18639
vn -0.19407 0.96312 0.18639
vn -0.19912 -0.95998 0.19694
vn 0.19912 -0.95998 0.19694
vn 0.15908 -0.97465 -0.15734
vn -0.15908 -0.97465 -0.15734
vn 0.09155 -0.09155 0.99158
vn -0.09155 -0.09155 0.99158
vn 0.18233 -0.09041 -0.97907
vn 0.18233 -0.09041 0.97907
vn -0.09155 -0.09155 -0.99158
vn 0.09155 -0.09155 -0.99158
vn -0.18233 -0.09041 0.97907
vn -0.18233 -0.09041 -0.97907
vn -0.09041 -0.18233 0.97907
vn 0.09041 -0.18233 0.97907
vn 0.09041 -0.18233 -0.97907
vn -0.09041 -0.18233 -0.97907
vn -0.09193 0.00000 0.99577
vn 1.00000 -0.00000 -0.00000
vn 0.09193 -0.00000 0.99577
vn 0.00000 0.00000 -1.00000
vn -0.09193 0.00000 -0.99577
vn -1.00000 -0.00000 0.00000
vn 0.09193 0.00000 -0.99577
vn 0.92388 -0.38268 -0.00000
vn 0.38268 -0.92388 0.00000
vn -0.92388 -0.38268 0.00000
vn -0.38268 -0.92388 0.00000
vn 0.18308 0.00000 0.98310
vn -0.18308 0.00000 -0.98310
vn 0.00000 -1.00000 0.00000
vn -0.18308 0.00000 0.98310
vn 0.18308 0.00000 -0.98310
vn 0.00000 -1.00000 0.00000
# 125 normal vertices

usemtl mat1
f 23/3/23 22/2/22 21/1/21
f 26/6/26 25/5/25 24/4/24
f 29/9/29 28/8/28 27/7/27
f 32/12/32 31/11/31 30/10/30
f 51/5/51 50/6/50 49/4/49
f 54/7/54 53/8/53 52/9/52
f 73/3/73 72/1/72 71/2/71
f 76/12/76 75/10/75 74/11/74
f 97/15/97 106/14/106 100/13/100
f 98/18/98 103/17/103 105/16/105
f 99/21/99 107/20/107 102/19/102
f 101/24/101 108/23/108 104/22/104
f 2/28/2 1/27/1 4/26/4 3/25/3
f 2/28/2 6/30/6 7/29/7 1/27/1
f 3/25/3 10/32/10 11/31/11 2/28/2
f 4/26/4 14/34/14 15/33/15 3/25/3
f 1/27/1 18/36/18 19/35/19 4/26/4
f 23/3/23 18/36/18 1/27/1 7/29/7
f 26/6/26 6/30/6 2/28/2 11/31/11
f 29/9/29 10/32/10 3/25/3 15/33/15
f 32/12/32 14/34/14 4/26/4 19/35/19
f 6/30/6 5/38/5 8/37/8 7/29/7
f 26/6/26 24/4/24 5/38/5 6/30/6
f 8/37/8 22/2/22 23/3/23 7/29/7
f 5/38/5 91/40/91 92/39/92 8/37/8
f 40/41/40 91/40/91 5/38/5 24/4/24
f 81/42/81 22/2/22 8/37/8 92/39/92
f 10/32/10 9/44/9 12/43/12 11/31/11
f 10/32/10 29/9/29 27/7/27 9/44/9
f 12/43/12 25/5/25 26/6/26 11/31/11
f 9/44/9 36/46/36 33/45/33 12/43/12
f 46/47/46 36/46/36 9/44/9 27/7/27
f 25/5/25 12/43/12 33/45/33 39/48/39
f 14/34/14 13/50/13 16/49/16 15/33/15
f 14/34/14 32/12/32 30/10/30 13/50/13
f 28/8/28 29/9/29 15/33/15 16/49/16
f 13/50/13 93/52/93 94/51/94 16/49/16
f 88/53/88 93/52/93 13/50/13 30/10/30
f 28/8/28 16/49/16 94/51/94 45/54/45
f 18/36/18 17/56/17 20/55/20 19/35/19
f 23/3/23 21/1/21 17/56/17 18/36/18
f 31/11/31 32/12/32 19/35/19 20/55/20
f 17/56/17 78/58/78 79/57/79 20/55/20
f 78/58/78 17/56/17 21/1/21 82/59/82
f 87/60/87 31/11/31 20/55/20 79/57/79
f 81/42/81 82/59/82 21/1/21 22/2/22
f 25/5/25 39/48/39 40/41/40 24/4/24
f 28/8/28 45/54/45 46/47/46 27/7/27
f 87/60/87 88/53/88 30/10/30 31/11/31
f 34/45/34 33/45/33 36/46/36 35/46/35
f 34/45/34 38/48/38 39/48/39 33/45/33
f 35/46/35 42/44/42 43/43/43 34/45/34
f 36/46/36 46/47/46 47/47/47 35/46/35
f 51/5/51 38/48/38 34/45/34 43/43/43
f 54/7/54 42/44/42 35/46/35 47/47/47
f 38/48/38 37/41/37 40/41/40 39/48/39
f 51/5/51 49/4/49 37/41/37 38/48/38
f 37/41/37 90/40/90 91/40/91 40/41/40
f 62/38/62 90/40/90 37/41/37 49/4/49
f 42/44/42 41/32/41 44/31/44 43/43/43
f 54/7/54 52/9/52 41/32/41 42/44/42
f 50/6/50 51/5/51 43/43/43 44/31/44
f 41/32/41 58/25/58 55/28/55 44/31/44
f 58/25/58 41/32/41 52/9/52 68/33/68
f 61/30/61 50/6/50 44/31/44 55/28/55
f 46/47/46 45/54/45 48/54/48 47/47/47
f 53/8/53 54/7/54 47/47/47 48/54/48
f 45/54/45 94/51/94 95/51/95 48/54/48
f 67/49/67 53/8/53 48/54/48 95/51/95
f 50/6/50 61/30/61 62/38/62 49/4/49
f 53/8/53 67/49/67 68/33/68 52/9/52
f 56/27/56 55/28/55 58/25/58 57/26/57
f 56/27/56 60/29/60 61/30/61 55/28/55
f 57/26/57 64/35/64 65/36/65 56/27/56
f 58/25/58 68/33/68 69/34/69 57/26/57
f 73/3/73 60/29/60 56/27/56 65/36/65
f 76/12/76 64/35/64 57/26/57 69/34/69
f 60/29/60 59/37/59 62/38/62 61/30/61
f 73/3/73 71/2/71 59/37/59 60/29/60
f 59/37/59 89/39/89 90/40/90 62/38/62
f 84/42/84 89/39/89 59/37/59 71/2/71
f 64/35/64 63/55/63 66/56/66 65/36/65
f 64/35/64 76/12/76 74/11/74 63/55/63
f 66/56/66 72/1/72 73/3/73 65/36/65
f 63/55/63 80/57/80 77/58/77 66/56/66
f 86/60/86 80/57/80 63/55/63 74/11/74
f 72/1/72 66/56/66 77/58/77 83/59/83
f 68/33/68 67/49/67 70/50/70 69/34/69
f 75/10/75 76/12/76 69/34/69 70/50/70
f 67/49/67 95/51/95 96/52/96 70/50/70
f 75/10/75 70/50/70 96/52/96 85/53/85
f 72/1/72 83/59/83 84/42/84 71/2/71
f 75/10/75 85/53/85 86/60/86 74/11/74
f 78/58/78 77/58/77 80/57/80 79/57/79
f 78/58/78 82/59/82 83/59/83 77/58/77
f 80/57/80 86/60/86 87/60/87 79/57/79
f 82/59/82 81/42/81 84/42/84 83/59/83
f 81/42/81 92/39/92 89/39/89 84/42/84
f 86/60/86 85/53/85 88/53/88 87/60/87
f 85/53/85 96/52/96 93/52/93 88/53/88
f 90/40/90 89/39/89 92/39/92 91/40/91
f 98/18/98 105/16/105 106/14/106 97/15/97
f 100/13/116 106/14/117 107/14/117 99/13/116
f 102/19/102 107/20/107 108/23/108 101/24/101
f 104/61/118 108/63/119 105/62/119 103/61/118
f 106/65/117 105/62/119 108/63/119 107/64/117
f 116/67/114 117/67/114 115/67/114 104/66/118 103/66/118
f 118/70/115 102/19/102 101/24/101 114/69/113 113/68/112
f 112/74/111 109/73/109 98/72/98 97/71/97
f 111/75/110 100/13/116 99/13/116 110/75/110
f 112/76/111 97/15/97 100/13/100 111/75/120
f 114/69/113 101/24/101 104/22/104 115/77/121
f 115/80/122 117/80/122 96/52/96 95/51/95 113/79/122 114/78/122
f 109/82/109 116/81/123 103/17/103 98/18/98
f 110/86/124 99/85/99 102/84/102 118/83/115
f 96/52/96 117/80/122 116/80/125 109/78/125 112/87/125 111/88/125 110/88/125 118/87/125 113/79/122 95/51/95 94/51/94 93/52/93
# 116 elements

